:SAMPLES-PER-SECOND 30
:FULLY-SPECIFIED
:DEGREES
167
root  5.43529 19.4555 -53.2619 49.2506 2.30779 -5.64368
RightUpLeg  -46.1275 -7.58387 -3.88922
RightLeg  112.726 17.4682 -4.02939
RightFoot  -32.9283 0.770271 3.78534
RightToes  5.82077e-011 -3.18055e-015 -2.98177e-016
Spine  46.9032 -4.56011 23.652
Spine1  -16.1138 5.24828 6.94322
HEad  -18.2338 -4.4678 -4.35861
LeftShoulder1  -3.88251e-019 9.70628e-020 -3.87848e-018
LeftArm  -0.553542 -33.0337 -78.4441
LeftForeArm  -17.8913 -7.25115 -2.48748
LeftHand  -9.45133 -9.5271 67.1559
RightShoulder  7.40794 10.7204 34.5072
RightArm  23.3353 5.45423 27.8081
RightForeArm  27.6228 17.5212 -3.23849
RightHand  -13.2001 11.3053 -77.2735
LeftUpLeg  -43.2236 -10.1992 -6.64459
LeftLeg  100.26 -19.8918 24.0579
LeftFoot  -21.9357 -0.538102 -6.16959
LeftToes  9.37148e-011 4.50685e-012 -4.11107e-011
168
root  5.73777 19.564 -52.5542 48.0715 2.51519 -7.75683
RightUpLeg  -48.9294 -7.19736 -2.61425
RightLeg  116.749 17.4512 -3.44698
RightFoot  -33.7366 0.884411 4.25808
RightToes  5.82077e-011 -3.18055e-015 -2.98177e-016
Spine  48.2926 -5.20549 23.628
Spine1  -16.9867 5.01752 7.12342
HEad  -17.769 -2.73188 -7.02481
LeftShoulder1  -3.88251e-019 9.70628e-020 -3.87848e-018
LeftArm  -1.06971 -29.9173 -77.4799
LeftForeArm  -17.7044 -7.95012 -2.89773
LeftHand  -9.90732 -9.79153 68.7026
RightShoulder  7.59053 10.8043 35.2419
RightArm  33.8109 3.69818 25.7829
RightForeArm  20.9563 20.113 -7.4571
RightHand  -11.5691 11.4943 -69.4174
LeftUpLeg  -39.6668 -8.98024 -5.84581
LeftLeg  97.5645 -18.9776 24.9222
LeftFoot  -21.704 -0.516251 -6.07505
LeftToes  9.37148e-011 4.50685e-012 -4.11107e-011
169
root  5.92604 19.6363 -51.8559 46.9043 2.61842 -9.59857
RightUpLeg  -52.1455 -6.94548 -0.989938
RightLeg  120.445 16.7964 -1.97952
RightFoot  -33.7173 0.643807 2.9278
RightToes  5.82077e-011 -3.18055e-015 -2.98177e-016
Spine  50.0105 -6.10959 23.2009
Spine1  -18.5391 4.41504 6.97791
HEad  -17.2727 -0.740989 -8.93662
LeftShoulder1  -3.88251e-019 9.70628e-020 -3.87848e-018
LeftArm  -2.40339 -26.4507 -75.9669
LeftForeArm  -16.6538 -8.9511 -3.24922
LeftHand  -10.0559 -9.95262 68.9104
RightShoulder  7.35459 10.6693 34.3509
RightArm  39.4055 -1.23745 24.4163
RightForeArm  15.567 24.9099 -14.4202
RightHand  -10.5326 11.7022 -63.8514
LeftUpLeg  -36.5044 -8.03602 -5.01755
LeftLeg  95.5373 -18.1531 25.2367
LeftFoot  -20.8871 -0.499405 -6.49709
LeftToes  9.37148e-011 4.50685e-012 -4.11107e-011
170
root  6.04486 19.7019 -51.1493 45.5836 2.97899 -11.3672
RightUpLeg  -55.0862 -6.89987 1.42684
RightLeg  123.57 16.0476 -0.718096
RightFoot  -33.5668 0.63542 2.90693
RightToes  5.82077e-011 -3.18055e-015 -2.98177e-016
Spine  51.3962 -7.19845 23.0172
Spine1  -19.2368 3.64162 7.06731
HEad  -17.7383 0.897242 -10.6724
LeftShoulder1  -3.88251e-019 9.70628e-020 -3.87848e-018
LeftArm  -3.92044 -23.5532 -74.5764
LeftForeArm  -15.2866 -8.86504 -3.55363
LeftHand  -10.3529 -9.98879 70.3432
RightShoulder  7.31742 10.5996 34.3134
RightArm  34.6771 -4.30915 22.875
RightForeArm  18.5041 32.069 -18.1824
RightHand  -10.4109 11.8689 -62.7243
LeftUpLeg  -33.236 -7.25078 -3.80466
LeftLeg  93.6483 -17.3048 25.2467
LeftFoot  -20.2711 -0.50059 -7.09597
LeftToes  9.37148e-011 4.50685e-012 -4.11107e-011
171
root  6.08165 19.7267 -50.4744 44.2809 3.20237 -12.6424
RightUpLeg  -57.5978 -7.11128 4.00108
RightLeg  126.048 15.6152 -0.118665
RightFoot  -34.0259 0.785966 3.64896
RightToes  5.82077e-011 -3.18055e-015 -2.98177e-016
Spine  52.0058 -8.01974 22.5602
Spine1  -18.5827 2.76454 7.27566
HEad  -19.0882 2.0073 -12.1514
LeftShoulder1  -3.88251e-019 9.70628e-020 -3.87848e-018
LeftArm  -5.38677 -21.4487 -73.2931
LeftForeArm  -13.4979 -8.47534 -3.61197
LeftHand  -10.8159 -10.1347 72.209
RightShoulder  7.32372 10.5765 34.3955
RightArm  31.467 -5.06263 22.2851
RightForeArm  17.4355 38.725 -22.6842
RightHand  -10.4441 11.9276 -62.7124
LeftUpLeg  -29.8292 -6.34752 -2.90554
LeftLeg  91.4865 -16.39 25.5268
LeftFoot  -20.0064 -0.535071 -7.94928
LeftToes  9.37148e-011 4.50685e-012 -4.11107e-011
172
root  5.97718 19.673 -49.8759 43.559 2.5575 -12.7464
RightUpLeg  -60.5373 -7.30088 5.78016
RightLeg  127.829 15.4494 0.0705648
RightFoot  -34.6454 0.978143 4.54492
RightToes  5.82077e-011 -3.18055e-015 -2.98177e-016
Spine  51.8519 -7.91847 20.6693
Spine1  -17.5464 1.84719 7.68119
HEad  -20.1943 2.82872 -12.674
LeftShoulder1  -3.88251e-019 9.70628e-020 -3.87848e-018
LeftArm  -6.55324 -19.255 -72.5436
LeftForeArm  -11.2163 -8.754 -3.41551
LeftHand  -11.1841 -10.433 72.9755
RightShoulder  7.07951 10.4356 33.4504
RightArm  27.8933 -4.87208 23.3591
RightForeArm  14.3782 44.2453 -27.2121
RightHand  -9.96515 11.8559 -60.531
LeftUpLeg  -27.0057 -5.32944 -3.35787
LeftLeg  89.2489 -15.477 26.1833
LeftFoot  -19.5693 -0.55314 -8.82779
LeftToes  9.37148e-011 4.50685e-012 -4.11107e-011
173
root  5.74078 19.5525 -49.3324 43.6829 1.09864 -11.8689
RightUpLeg  -64.5763 -7.05784 7.15872
RightLeg  128.523 16.1675 -0.809937
RightFoot  -33.2484 1.26335 6.53982
RightToes  5.82077e-011 -3.18055e-015 -2.98177e-016
Spine  51.0489 -6.77625 17.485
Spine1  -16.684 1.15237 8.56785
HEad  -20.6347 3.26602 -12.4475
LeftShoulder1  -3.88251e-019 9.70628e-020 -3.87848e-018
LeftArm  -7.32992 -17.2044 -72.4371
LeftForeArm  -9.06012 -9.17112 -3.33955
LeftHand  -11.5428 -10.7499 73.589
RightShoulder  6.62102 10.1365 31.6914
RightArm  23.939 -3.85715 25.8014
RightForeArm  10.2613 48.1869 -31.0769
RightHand  -9.23249 11.6013 -57.5155
LeftUpLeg  -25.2403 -4.31244 -4.99009
LeftLeg  87.2216 -14.6211 26.9643
LeftFoot  -18.8236 -0.529672 -9.54468
LeftToes  9.37148e-011 4.50685e-012 -4.11107e-011
174
root  5.46955 19.396 -48.7631 44.2075 -0.106292 -10.8237
RightUpLeg  -68.2411 -6.45479 9.30016
RightLeg  127.445 19.4562 -4.92569
RightFoot  -28.5975 1.12822 7.58175
RightToes  5.82077e-011 -3.18055e-015 -2.98177e-016
Spine  49.6363 -5.36282 14.7891
Spine1  -15.6155 0.877431 9.64001
HEad  -20.8711 2.73319 -12.6136
LeftShoulder1  -3.88251e-019 9.70628e-020 -3.87848e-018
LeftArm  -7.87767 -15.8771 -73.1615
LeftForeArm  -7.20537 -9.05224 -3.6604
LeftHand  -12.0562 -11.0222 75.0535
RightShoulder  6.06941 9.70947 29.625
RightArm  20.1202 -1.31379 28.6156
RightForeArm  6.04543 50.6796 -33.8626
RightHand  -8.66331 11.1298 -55.808
LeftUpLeg  -23.9225 -3.53169 -6.50068
LeftLeg  85.2239 -13.7177 27.7929
LeftFoot  -18.5166 -0.538558 -10.2732
LeftToes  9.37148e-011 4.50685e-012 -4.11107e-011
175
root  5.19063 19.214 -48.14 44.7667 -0.289817 -9.67108
RightUpLeg  -69.7752 -5.98306 11.996
RightLeg  124.702 24.6941 -12.1488
RightFoot  -23.3169 0.772906 7.95789
RightToes  5.82077e-011 -3.18055e-015 -2.98177e-016
Spine  47.7914 -4.92431 13.7021
Spine1  -14.5597 0.44359 9.44961
HEad  -20.9017 1.63254 -12.9879
LeftShoulder1  -3.88251e-019 9.70628e-020 -3.87848e-018
LeftArm  -8.25064 -14.5869 -74.0575
LeftForeArm  -4.90545 -8.93061 -4.25634
LeftHand  -12.5373 -11.2694 76.3911
RightShoulder  5.66669 9.36397 28.0942
RightArm  17.1375 2.75547 31.3416
RightForeArm  3.17356 51.8875 -35.311
RightHand  -8.13201 10.6361 -54.2352
LeftUpLeg  -22.4612 -3.41835 -7.2474
LeftLeg  82.9938 -12.6284 28.7456
LeftFoot  -18.9831 -0.60686 -10.7709
LeftToes  9.37148e-011 4.50685e-012 -4.11107e-011
176
root  4.82915 19.0014 -47.5342 45.809 0.49202 -7.75783
RightUpLeg  -69.6541 -6.12643 13.9633
RightLeg  121.759 28.6281 -18.4677
RightFoot  -21.1081 0.796825 10.4787
RightToes  5.82077e-011 -3.18055e-015 -2.98177e-016
Spine  45.3617 -5.1806 13.3201
Spine1  -13.6477 -0.344401 8.34137
HEad  -20.7066 0.306688 -12.7232
LeftShoulder1  -3.88251e-019 9.70628e-020 -3.87848e-018
LeftArm  -8.3733 -13.1342 -75.135
LeftForeArm  -1.9362 -9.23011 -4.63568
LeftHand  -12.7591 -11.423 76.8465
RightShoulder  5.08676 8.84549 25.7994
RightArm  14.0529 6.77541 35.0663
RightForeArm  2.9537 51.6412 -34.946
RightHand  -7.43202 10.1903 -51.4039
LeftUpLeg  -21.6304 -4.51704 -7.52588
LeftLeg  80.8237 -11.4799 29.6131
LeftFoot  -19.3215 -0.619692 -10.3924
LeftToes  9.37148e-011 4.50685e-012 -4.11107e-011
177
root  4.40869 18.8766 -46.9495 47.0455 2.43571 -6.12952
RightUpLeg  -68.3729 -6.68613 15.7273
RightLeg  119.535 29.79 -21.2873
RightFoot  -20.9687 0.911704 12.4511
RightToes  5.82077e-011 -3.18055e-015 -2.98177e-016
Spine  43.0134 -6.06993 14.338
Spine1  -12.8196 -1.12519 6.30595
HEad  -20.5472 -1.06436 -11.604
LeftShoulder1  -3.88251e-019 9.70628e-020 -3.87848e-018
LeftArm  -8.08539 -11.9069 -76.1467
LeftForeArm  1.0233 -9.78002 -4.9109
LeftHand  -12.813 -11.3906 77.1941
RightShoulder  4.37146 8.16497 22.8259
RightArm  10.5263 10.9268 39.9769
RightForeArm  5.41448 49.295 -32.0606
RightHand  -6.80104 9.65239 -49.0562
LeftUpLeg  -21.5024 -6.32469 -6.19391
LeftLeg  78.996 -10.4751 29.757
LeftFoot  -18.8948 -0.528643 -9.39977
LeftToes  9.37148e-011 4.50685e-012 -4.11107e-011
